<?xml version="1.0" standalone="no"?>
<!DOCTYPE svg PUBLIC "-//W3C//DTD SVG 20010904//EN"
 "http://www.w3.org/TR/2001/REC-SVG-20010904/DTD/svg10.dtd">
<svg version="1.0" xmlns="http://www.w3.org/2000/svg"
 width="826.000000pt" height="826.000000pt" viewBox="0 0 826.000000 826.000000"
 preserveAspectRatio="xMidYMid meet">
<metadata>
Created by potrace 1.14, written by Peter Selinger 2001-2017
</metadata>
<g transform="translate(0.000000,826.000000) scale(0.100000,-0.100000)"
fill="#000000" stroke="none">
<path d="M2124 8154 c3 -7 2 -15 -2 -18 -7 -7 -7 -9 -16 -93 -4 -35 -8 -68
-11 -75 -2 -7 -6 -35 -9 -63 -3 -27 -8 -61 -10 -75 -3 -14 -10 -61 -16 -105
-6 -44 -12 -91 -15 -105 -2 -14 -7 -45 -10 -70 -2 -25 -7 -56 -9 -70 -7 -39
-14 -90 -21 -152 -6 -52 -5 -58 12 -59 10 -1 23 -2 28 -3 28 -5 102 -19 120
-23 11 -3 38 -9 60 -14 106 -25 106 -24 125 -31 8 -3 35 -11 60 -18 25 -6 104
-30 175 -53 72 -22 133 -40 138 -39 4 1 7 -3 7 -8 0 -6 6 -10 14 -10 35 0 316
-125 476 -212 242 -131 482 -330 613 -509 26 -35 52 -70 58 -77 52 -62 207
-348 268 -492 18 -41 36 -84 41 -95 16 -35 72 -186 74 -198 1 -7 4 -16 7 -22
4 -5 10 -23 14 -40 5 -16 9 -32 10 -35 1 -3 9 -32 19 -65 10 -33 20 -67 23
-75 3 -8 7 -19 8 -25 2 -5 11 -39 20 -75 9 -36 18 -72 20 -80 35 -166 40 -195
60 -337 3 -21 8 -51 11 -68 3 -16 7 -46 9 -65 2 -19 7 -46 10 -60 4 -14 6 -39
6 -57 0 -18 6 -33 14 -37 8 -3 84 -5 170 -5 85 0 159 -2 164 -5 5 -4 12 -2 16
4 4 7 12 7 25 0 13 -7 21 -7 25 0 4 6 11 8 16 4 6 -3 27 -7 47 -9 63 -5 134
-15 141 -19 3 -2 31 -7 61 -11 30 -4 59 -9 63 -12 5 -3 22 -7 39 -10 17 -3 74
-18 127 -34 53 -16 103 -31 111 -33 51 -14 213 -83 330 -140 143 -70 331 -191
470 -303 112 -90 344 -322 390 -389 8 -13 40 -56 71 -96 106 -138 210 -321
307 -538 22 -49 101 -277 107 -310 2 -11 6 -24 10 -29 3 -6 8 -29 11 -53 4
-24 11 -51 16 -61 5 -10 7 -21 5 -24 -3 -2 -1 -19 4 -36 13 -43 28 -149 31
-217 l3 -55 447 -1 c314 0 448 2 451 10 6 17 -4 167 -19 265 -9 68 -12 82 -20
126 -4 22 -7 48 -8 58 0 9 -4 17 -9 17 -4 0 -6 4 -3 8 3 5 -6 50 -19 100 -12
51 -21 92 -18 92 3 0 1 6 -5 13 -6 7 -12 25 -14 39 -2 15 -7 30 -11 34 -4 4
-7 17 -7 29 0 12 -3 25 -7 29 -4 3 -8 12 -9 19 -2 16 -53 165 -69 202 -16 37
-27 67 -31 80 -1 6 -21 51 -45 100 -23 50 -43 92 -44 95 -7 22 -20 48 -33 63
-8 9 -12 17 -7 17 4 0 3 6 -3 13 -10 12 -30 46 -80 137 -32 59 -184 288 -211
319 -12 13 -21 27 -21 31 0 3 -8 15 -17 26 -10 10 -38 44 -63 74 -107 131
-275 308 -378 396 -18 16 -49 43 -68 61 -88 80 -298 231 -454 328 -108 66
-408 220 -450 230 -3 0 -16 7 -30 15 -14 7 -26 13 -27 12 -2 -1 -18 5 -37 13
-20 8 -42 15 -49 15 -8 0 -17 3 -21 7 -3 4 -12 8 -19 10 -7 1 -39 12 -72 24
-57 20 -89 30 -215 65 -62 17 -84 23 -120 30 -14 2 -32 7 -40 10 -8 3 -28 8
-45 10 -81 11 -117 23 -109 35 3 6 1 22 -5 37 -6 15 -13 38 -15 52 -6 35 -65
241 -76 265 -5 11 -21 58 -36 105 -24 77 -85 237 -119 315 -55 126 -77 174
-129 275 -65 128 -128 239 -163 286 -13 17 -23 34 -23 37 0 4 -12 24 -27 45
-16 22 -43 61 -62 88 -34 48 -47 64 -126 160 -73 88 -208 224 -295 297 -46 40
-96 82 -110 95 -14 12 -28 22 -32 22 -3 0 -13 6 -20 13 -7 7 -35 28 -63 47
-27 19 -51 37 -53 42 -2 4 -8 8 -13 8 -6 0 -36 17 -68 39 -33 21 -83 52 -112
67 -30 16 -56 31 -59 35 -12 13 -323 161 -420 199 -30 12 -64 26 -75 30 -11 4
-36 15 -55 23 -33 14 -103 38 -125 43 -5 2 -34 12 -62 22 -29 11 -53 18 -53
16 0 -3 -13 2 -30 11 -16 9 -30 13 -30 9 0 -4 -7 -1 -15 6 -8 7 -15 9 -15 5 0
-4 -7 -2 -15 5 -8 7 -15 10 -15 7 0 -3 -21 2 -47 10 -27 8 -55 16 -63 18 -8 2
-60 15 -115 29 -55 13 -111 27 -125 30 -203 44 -272 54 -266 40z"/>
<path d="M2470 6398 c-14 -11 -35 -28 -48 -39 -12 -10 -24 -19 -27 -19 -3 0
-13 -7 -22 -15 -23 -18 -365 -275 -394 -295 -12 -8 -27 -19 -33 -25 -6 -5 -46
-36 -90 -69 -43 -32 -75 -61 -70 -65 5 -3 14 -13 19 -23 44 -73 131 -204 137
-206 4 -2 8 -12 8 -23 0 -10 5 -19 10 -19 6 0 10 -6 10 -14 0 -8 3 -16 8 -18
8 -4 22 -29 111 -203 71 -137 139 -285 156 -335 1 -3 7 -18 14 -35 43 -104
135 -414 146 -490 1 -11 6 -40 10 -65 17 -112 23 -195 20 -320 -4 -187 -11
-241 -56 -430 -39 -164 -134 -439 -189 -549 -4 -9 -37 -77 -74 -151 -60 -123
-79 -158 -143 -270 -76 -130 -174 -280 -184 -280 -17 0 -4 -24 26 -49 17 -14
32 -28 35 -31 7 -7 140 -122 174 -151 16 -13 52 -45 80 -70 28 -25 85 -75 126
-110 41 -35 80 -68 86 -74 45 -41 131 -113 137 -115 9 -2 139 99 145 113 2 4
9 7 16 7 7 0 21 8 32 18 55 51 302 189 469 263 134 58 415 147 415 131 0 -3 5
-1 12 6 7 7 24 12 39 12 15 0 40 5 54 10 15 6 47 12 73 15 26 3 58 7 71 10
141 28 616 27 735 -2 12 -3 35 -6 51 -8 17 -2 30 -4 30 -5 0 -1 9 -3 20 -4 69
-10 217 -47 325 -82 30 -10 57 -18 60 -19 3 -1 12 -5 20 -8 8 -3 47 -18 85
-32 116 -43 334 -157 460 -241 65 -44 126 -83 134 -89 8 -5 27 -21 42 -35 40
-36 72 -60 81 -60 5 0 150 142 323 315 l314 314 -63 56 c-34 30 -107 89 -162
130 -117 88 -115 87 -140 102 -10 7 -50 31 -87 55 -106 67 -124 77 -247 140
-63 32 -120 63 -127 68 -7 6 -17 10 -23 10 -6 0 -33 11 -60 25 -27 14 -53 25
-58 25 -5 0 -31 10 -58 22 -27 12 -51 22 -54 23 -3 0 -18 5 -35 12 -55 21 -70
26 -80 28 -5 1 -32 10 -60 20 -27 9 -61 19 -74 21 -13 3 -34 10 -45 16 -12 6
-23 10 -26 9 -5 -2 -92 16 -120 25 -8 3 -16 5 -17 5 -2 1 -31 7 -65 16 -35 8
-76 16 -93 18 -16 2 -46 6 -65 10 -19 4 -46 8 -60 10 -57 6 -157 18 -190 22
-63 8 -523 8 -610 0 -142 -13 -248 -27 -330 -43 -14 -3 -38 -7 -55 -10 -16 -3
-66 -15 -110 -26 -44 -11 -88 -22 -98 -24 -10 -2 -28 -6 -39 -10 -22 -7 -22
-6 -3 66 3 14 8 32 10 40 2 8 4 16 5 18 2 1 4 7 5 12 1 6 3 11 4 13 2 1 4 13
7 26 2 13 13 58 23 100 11 42 23 96 27 121 9 50 11 59 13 63 4 4 16 99 29 227
3 36 6 144 6 240 0 160 -4 228 -19 348 -3 23 -7 59 -9 80 -3 20 -7 44 -10 52
-3 8 -8 32 -11 54 -3 21 -7 41 -9 45 -2 3 -7 22 -10 41 -3 19 -11 53 -17 75
-6 22 -14 56 -19 75 -4 19 -17 64 -28 100 -17 58 -34 106 -103 296 -49 136
-220 497 -298 629 -10 17 -29 50 -43 75 -48 86 -73 126 -160 256 -47 73 -90
134 -95 137 -4 3 -19 -4 -33 -15z"/>
<path d="M845 1962 c-3 -3 -20 -7 -38 -9 -40 -3 -197 -51 -214 -65 -7 -6 -13
-8 -13 -5 0 9 -138 -71 -185 -106 -62 -47 -186 -177 -222 -232 -18 -28 -36
-54 -40 -60 -21 -27 -108 -235 -98 -235 3 0 0 -11 -5 -25 -34 -89 -34 -346 0
-475 36 -139 121 -304 203 -394 12 -13 29 -33 38 -43 19 -22 71 -68 125 -110
51 -40 215 -125 274 -142 25 -7 56 -17 70 -22 117 -39 353 -35 500 8 30 9 57
17 60 17 22 4 110 43 129 58 13 10 32 18 42 18 9 0 19 4 21 8 2 5 25 23 52 41
106 73 264 249 293 328 3 10 10 20 13 23 7 5 59 132 65 159 2 9 8 31 14 49 5
17 8 32 5 32 -3 0 0 9 5 19 9 15 24 145 22 186 -4 94 -18 206 -30 237 -5 13
-9 28 -10 33 -7 61 -74 202 -142 301 -64 92 -235 254 -268 254 -6 0 -11 3 -11
8 0 6 -71 44 -145 77 -111 49 -238 73 -386 72 -66 0 -121 -3 -124 -5z"/>
</g>
</svg>
